#define wifi_off_03_width 8
#define wifi_off_03_height 8
static unsigned char wifi_off_03_bits[] = {
   0x7e, 0x81, 0x81, 0x42, 0x42, 0x24, 0x24, 0x18 };
